<svg xmlns="http://www.w3.org/2000/svg" viewBox="0 0 448 448">
  <path d="M312 224H136c-13.255 0-24-10.745-24-24V24c0-13.255 10.745-24 24-24h176c13.255 0 24 10.745 24 24v176c0 13.255-10.745 24-24 24z" fill="#ffc855"/>
  <path d="M200 448H24c-13.255 0-24-10.745-24-24V248c0-13.255 10.745-24 24-24h176c13.255 0 24 10.745 24 24v176c0 13.255-10.745 24-24 24z" fill="#00bea5"/>
  <path d="M424 448H248c-13.255 0-24-10.745-24-24V248c0-13.255 10.745-24 24-24h176c13.255 0 24 10.745 24 24v176c0 13.255-10.745 24-24 24z" fill="#e15050"/>
  <path d="M283.141 163.547l-39.227-98.063C240.641 57.289 232.828 52 224 52s-16.641 5.289-19.914 13.484l-39.227 98.063c-2.461 6.148.531 13.133 6.688 15.594 6.156 2.477 13.133-.523 15.594-6.688L193.722 156h60.555l6.582 16.453C262.734 177.148 267.242 180 272 180c1.484 0 2.992-.273 4.453-.859 6.156-2.461 9.149-9.446 6.688-15.594zM203.323 132L224 80.313 244.677 132h-41.354zM150.764 322.42C154.015 317.012 156 310.757 156 304c0-19.852-16.148-36-36-36H80c-6.625 0-12 5.375-12 12v112c0 6.625 5.375 12 12 12h48c24.258 0 44-19.742 44-44 0-15.921-8.533-29.854-21.236-37.58zM92 292h28c6.617 0 12 5.383 12 12s-5.383 12-12 12H92v-24zm36 88H92v-40h36c11.031 0 20 8.969 20 20s-8.969 20-20 20zM344.023 404.008a71.21 71.21 0 01-13.766-1.359c-26.5-5.234-47.773-26.57-52.945-53.086-3.961-20.344 1.211-41.039 14.188-56.789C304.477 277.031 323.609 268 343.992 268c12.109 0 24 3.227 34.391 9.32 5.93 3.477 9.617 10.039 9.617 17.109V304c0 6.625-5.375 12-12 12s-12-5.375-12-12v-7.203A43.993 43.993 0 00343.992 292c-13.188 0-25.57 5.844-33.977 16.039-8.516 10.344-11.766 23.461-9.141 36.93 3.32 17.055 17 30.766 34.031 34.133 12.188 2.414 24.328-.086 34.227-6.984 5.43-3.773 12.914-2.469 16.711 2.977 3.789 5.438 2.461 12.914-2.977 16.711-11.514 8.03-24.952 12.202-38.843 12.202z" fill="#fff"/>
  <path d="M248 424V248c0-13.255 10.745-24 24-24h-24c-13.255 0-24 10.745-24 24v176c0 13.255 10.745 24 24 24h24c-13.255 0-24-10.745-24-24z" fill="#d24146"/>
  <path d="M24 424V248c0-13.255 10.745-24 24-24H24c-13.255 0-24 10.745-24 24v176c0 13.255 10.745 24 24 24h24c-13.255 0-24-10.745-24-24z" fill="#00aa9a"/>
  <path d="M136 200V24c0-13.255 10.745-24 24-24h-24c-13.255 0-24 10.745-24 24v176c0 13.255 10.745 24 24 24h24c-13.255 0-24-10.745-24-24z" fill="#ffb44b"/>
  <path d="M320 24v16c0 4.422-3.578 8-8 8s-8-3.578-8-8V24c0-4.422 3.578-8 8-8s8 3.578 8 8z" fill="#ffde99"/>
  <path d="M320 72v56c0 4.422-3.578 8-8 8s-8-3.578-8-8V72c0-4.422 3.578-8 8-8s8 3.578 8 8z" fill="#ffd680"/>
  <path d="M432 248v16c0 4.422-3.578 8-8 8s-8-3.578-8-8v-16c0-4.422 3.578-8 8-8s8 3.578 8 8z" fill="#ed9696"/>
  <path d="M432 296v56c0 4.422-3.578 8-8 8s-8-3.578-8-8v-56c0-4.422 3.578-8 8-8s8 3.578 8 8z" fill="#e77373"/>
  <path d="M208 248v16c0 4.422-3.578 8-8 8s-8-3.578-8-8v-16c0-4.422 3.578-8 8-8s8 3.578 8 8z" fill="#66d8c9"/>
  <path d="M208 296v56c0 4.422-3.578 8-8 8s-8-3.578-8-8v-56c0-4.422 3.578-8 8-8s8 3.578 8 8z" fill="#33cbb7"/>
</svg>
