<svg xmlns="http://www.w3.org/2000/svg" viewBox="0 0 512 512"><path d="M144 318.5H64a8 8 0 00-8 8v176a8 8 0 008 8h80a8 8 0 008-8v-176a8 8 0 00-8-8z" fill="#fec7b0"/><g fill="#feaa88"><path d="M80 502.5v-176a8 8 0 018-8H64a8 8 0 00-8 8v176a8 8 0 008 8h24a8 8 0 01-8-8zM296 278.5h-80a8 8 0 00-8 8v216a8 8 0 008 8h80a8 8 0 008-8v-216a8 8 0 00-8-8z"/></g><g fill="#fd8e61"><path d="M232 502.5v-216a8 8 0 018-8h-24a8 8 0 00-8 8v216a8 8 0 008 8h24a8 8 0 01-8-8zM448 190.5h-80a8 8 0 00-8 8v304a8 8 0 008 8h80a8 8 0 008-8v-304a8 8 0 00-8-8z"/></g><path d="M384 502.5v-304a8 8 0 018-8h-24a8 8 0 00-8 8v304a8 8 0 008 8h24a8 8 0 01-8-8z" fill="#fd7239"/><path d="M504 510.5H8a8 8 0 010-16h496a8 8 0 010 16z" fill="#aab4bd"/><path d="M482.589 5.506a15.997 15.997 0 00-12.573-3.882l-64 8c-8.769 1.096-14.988 9.093-13.892 17.861 1.096 8.77 9.102 14.983 17.86 13.892l24.068-3.008C352.648 139.657 252.56 191.285 180.743 217.031 96.902 247.087 32.145 249.488 31.5 249.508c-8.825.275-15.76 7.649-15.492 16.477.262 8.667 7.371 15.515 15.983 15.515.164 0 .328-.002.493-.007 2.798-.085 69.531-2.438 157.886-33.921 51.829-18.468 100.393-43.206 144.341-73.527C380.307 142.587 420.976 105.012 456 62.097V81.5c0 8.836 7.163 16 16 16s16-7.164 16-16v-64a16 16 0 00-5.411-11.994z" fill="#55697a"/></svg>