<svg xmlns="http://www.w3.org/2000/svg" viewBox="0 0 512 512"><path d="M358.414 21.311c-7.592-3.316-16.435.15-19.752 7.74-3.316 7.59.148 16.434 7.739 19.75C428.771 84.793 481.996 166.123 482 255.996c0 89.877-53.228 171.209-135.605 207.201-7.592 3.316-11.057 12.16-7.74 19.752 2.463 5.637 7.973 8.998 13.754 8.998 2.004 0 4.043-.404 5.998-1.26C451.711 449.92 512 357.799 512 255.994c-.004-101.797-60.291-193.916-153.586-234.683z"/><path  fill="#F3722C" d="M362.412 137.052c-6.172-5.525-15.654-5.002-21.181 1.17-5.525 6.174-5.001 15.656 1.171 21.182 27.452 24.574 43.197 59.781 43.197 96.594s-15.745 72.018-43.197 96.594c-6.172 5.525-6.696 15.008-1.171 21.18a14.958 14.958 0 0011.181 4.996c3.563 0 7.138-1.262 10-3.824 33.801-30.258 53.188-73.613 53.188-118.947s-19.387-88.688-53.188-118.945zM262.779 57.85a15 15 0 00-15.65 1.285l-116.54 85.461H15c-8.284 0-15 6.715-15 15v192.801c0 8.283 6.716 15 15 15h115.589l116.54 85.463a14.987 14.987 0 0015.65 1.283A14.998 14.998 0 00271 440.764V71.231a15 15 0 00-8.221-13.381z"/></svg>